<svg width="57" height="57" viewBox="0 0 57 57" fill="none" xmlns="http://www.w3.org/2000/svg">
<path fill-rule="evenodd" clip-rule="evenodd" d="M28.5 4.75C21.9416 4.75 16.625 10.0666 16.625 16.625C16.625 23.1834 21.9416 28.5 28.5 28.5C35.0584 28.5 40.375 23.1834 40.375 16.625C40.375 10.0666 35.0584 4.75 28.5 4.75ZM11.875 16.625C11.875 7.44327 19.3183 0 28.5 0C37.6817 0 45.125 7.44327 45.125 16.625C45.125 25.8067 37.6817 33.25 28.5 33.25C19.3183 33.25 11.875 25.8067 11.875 16.625Z" fill="#BCBCBC"/>
<path fill-rule="evenodd" clip-rule="evenodd" d="M17.6654 30.4602C21.1061 29.1646 24.7871 28.5 28.5 28.5C32.2129 28.5 35.8939 29.1646 39.3346 30.4602C42.7754 31.7559 45.9156 33.6601 48.5708 36.0739C51.2264 38.4881 53.3464 41.3665 54.7976 44.5515C56.2491 47.7373 57 51.161 57 54.625C57 55.9367 55.9367 57 54.625 57C53.3133 57 52.25 55.9367 52.25 54.625C52.25 51.8512 51.6494 49.0982 50.4751 46.521C49.3005 43.943 47.5718 41.5851 45.3756 39.5886C43.1789 37.5916 40.5591 35.9969 37.6607 34.9055C34.7621 33.814 31.6487 33.25 28.5 33.25C25.3513 33.25 22.2379 33.814 19.3393 34.9055C16.4409 35.9969 13.8211 37.5916 11.6244 39.5886C9.4282 41.5851 7.69949 43.943 6.52488 46.521C5.35063 49.0982 4.75 51.8512 4.75 54.625C4.75 55.9367 3.68668 57 2.375 57C1.06332 57 0 55.9367 0 54.625C0 51.161 0.750856 47.7373 2.20241 44.5515C3.65361 41.3665 5.7736 38.4881 8.42924 36.0739C11.0844 33.6601 14.2246 31.7559 17.6654 30.4602Z" fill="#BCBCBC"/>
</svg>
