<svg width="63" height="63" viewBox="0 0 63 63" fill="none" xmlns="http://www.w3.org/2000/svg">
<mask id="path-1-inside-1_35_3" fill="white">
<path fill-rule="evenodd" clip-rule="evenodd" d="M53.7748 53.7701C44.1479 63.398 29.8928 65.4781 18.2272 60.0832C16.5051 59.3898 15.0932 58.8294 13.7509 58.8294C10.0122 58.8516 5.35867 62.4767 2.94008 60.061C0.521494 57.6421 4.14938 52.9849 4.14938 49.2236C4.14938 47.8812 3.61121 46.4945 2.91792 44.769C-2.47958 33.1053 -0.396557 18.8455 9.23031 9.2207C21.5195 -3.07304 41.4856 -3.07304 53.7748 9.21754C66.0862 21.5303 66.064 41.4795 53.7748 53.7701Z"/>
<path fill-rule="evenodd" clip-rule="evenodd" d="M43.9091 32.8014H43.9374Z"/>
<path fill-rule="evenodd" clip-rule="evenodd" d="M31.2807 32.8014H31.309Z"/>
<path fill-rule="evenodd" clip-rule="evenodd" d="M18.6522 32.8014H18.6806Z"/>
</mask>
<path d="M53.7748 53.7701L50.1683 50.164L50.1683 50.164L53.7748 53.7701ZM18.2272 60.0832L20.3679 55.4542C20.2902 55.4182 20.2115 55.3842 20.132 55.3522L18.2272 60.0832ZM13.7509 58.8294V53.7294C13.7408 53.7294 13.7308 53.7294 13.7207 53.7295L13.7509 58.8294ZM2.94008 60.061L-0.666362 63.667L-0.663999 63.6694L2.94008 60.061ZM2.91792 44.769L7.65023 42.8676C7.61767 42.7866 7.58304 42.7064 7.54636 42.6272L2.91792 44.769ZM9.23031 9.2207L12.8362 12.8273L12.8372 12.8263L9.23031 9.2207ZM53.7748 9.21754L57.3812 5.61149L53.7748 9.21754ZM43.9091 27.7014C41.0924 27.7014 38.8091 29.9847 38.8091 32.8014C38.8091 35.618 41.0924 37.9014 43.9091 37.9014V27.7014ZM43.9374 37.9014C46.7541 37.9014 49.0374 35.618 49.0374 32.8014C49.0374 29.9847 46.7541 27.7014 43.9374 27.7014V37.9014ZM31.2807 27.7014C28.464 27.7014 26.1807 29.9847 26.1807 32.8014C26.1807 35.618 28.464 37.9014 31.2807 37.9014V27.7014ZM31.309 37.9014C34.1257 37.9014 36.409 35.618 36.409 32.8014C36.409 29.9847 34.1257 27.7014 31.309 27.7014V37.9014ZM18.6522 27.7014C15.8356 27.7014 13.5522 29.9847 13.5522 32.8014C13.5522 35.618 15.8356 37.9014 18.6522 37.9014V27.7014ZM18.6806 37.9014C21.4972 37.9014 23.7806 35.618 23.7806 32.8014C23.7806 29.9847 21.4972 27.7014 18.6806 27.7014V37.9014ZM50.1683 50.164C42.1068 58.2264 30.1623 59.9838 20.3679 55.4542L16.0865 64.7121C29.6232 70.9724 46.189 68.5696 57.3812 57.3761L50.1683 50.164ZM20.132 55.3522C18.6851 54.7697 16.2826 53.7294 13.7509 53.7294V63.9294C13.7236 63.9294 13.8733 63.9249 14.345 64.0702C14.8398 64.2226 15.4206 64.451 16.3224 64.8141L20.132 55.3522ZM13.7207 53.7295C12.0372 53.7395 10.4801 54.1437 9.33549 54.4931C8.7404 54.6748 8.16113 54.873 7.66773 55.0426C7.14658 55.2216 6.72618 55.3669 6.32236 55.4937C5.92434 55.6187 5.62815 55.698 5.40028 55.7454C5.16951 55.7933 5.09051 55.7908 5.12084 55.7908C5.28197 55.7907 5.96598 55.8751 6.54416 56.4526L-0.663999 63.6694C1.12348 65.4547 3.29616 65.9919 5.12689 65.9908C6.77765 65.9898 8.32122 65.5571 9.37857 65.2251C9.94128 65.0484 10.508 64.852 10.9824 64.689C11.4844 64.5165 11.909 64.3722 12.3137 64.2487C13.1687 63.9876 13.5953 63.9304 13.7812 63.9293L13.7207 53.7295ZM6.54653 56.455C7.12445 57.0329 7.20869 57.7168 7.20869 57.8761C7.20869 57.9055 7.20627 57.8254 7.2543 57.593C7.30172 57.3635 7.3811 57.0657 7.50604 56.6655C7.63296 56.259 7.77769 55.8374 7.95646 55.3127C8.12565 54.8162 8.32292 54.2341 8.50345 53.635C8.85094 52.4817 9.24938 50.9165 9.24938 49.2236H-0.950623C-0.950623 49.4114 -1.00567 49.8388 -1.26283 50.6922C-1.38462 51.0964 -1.52747 51.5212 -1.69839 52.0228C-1.85973 52.4963 -2.05512 53.064 -2.23053 53.6259C-2.56031 54.6823 -2.99131 56.2263 -2.99131 57.8761C-2.99131 59.7065 -2.45358 61.8796 -0.666361 63.667L6.54653 56.455ZM9.24938 49.2236C9.24938 46.707 8.24961 44.3594 7.65023 42.8676L-1.81438 46.6704C-1.45588 47.5627 -1.23321 48.137 -1.0873 48.6187C-0.949432 49.0738 -0.950623 49.2297 -0.950623 49.2236H9.24938ZM7.54636 42.6272C3.01532 32.8358 4.7746 20.8871 12.8362 12.8273L5.62446 5.61406C-5.56772 16.8038 -7.97449 33.3748 -1.71051 46.9109L7.54636 42.6272ZM12.8372 12.8263C23.1347 2.52502 39.8709 2.52502 50.1683 12.8236L57.3812 5.61149C43.1002 -8.6711 19.9044 -8.6711 5.62341 5.61512L12.8372 12.8263ZM50.1683 12.8236C60.486 23.1424 60.4685 39.8627 50.1683 50.164L57.3812 57.3761C71.6595 43.0963 71.6863 19.9182 57.3812 5.61149L50.1683 12.8236ZM43.9091 37.9014H43.9374V27.7014H43.9091V37.9014ZM31.2807 37.9014H31.309V27.7014H31.2807V37.9014ZM18.6522 37.9014H18.6806V27.7014H18.6522V37.9014Z" fill="#BCBCBC" mask="url(#path-1-inside-1_35_3)"/>
</svg>
