<svg width="57" height="57" viewBox="0 0 57 57" fill="none" xmlns="http://www.w3.org/2000/svg">
<path fill-rule="evenodd" clip-rule="evenodd" d="M20.5464 5.39693C21.3394 2.22511 24.1893 0 27.4587 0H29.5413C32.8107 0 35.6606 2.22512 36.4536 5.39693L36.6509 6.1863C37.2851 6.418 37.9065 6.67592 38.5139 6.95872L39.2124 6.53962C42.0159 4.85751 45.6045 5.29929 47.9163 7.61112L49.389 9.08376C51.7008 11.3956 52.1426 14.9842 50.4605 17.7877L50.0413 18.4862C50.3241 19.0936 50.582 19.715 50.8137 20.3491L51.6031 20.5464C54.7749 21.3394 57 24.1893 57 27.4587V29.5413C57 32.8107 54.7749 35.6606 51.6031 36.4536L50.8137 36.6509C50.582 37.285 50.3241 37.9064 50.0413 38.5138L50.4604 39.2123C52.1425 42.0158 51.7007 45.6043 49.3889 47.9162L47.9162 49.3888C45.6044 51.7006 42.0158 52.1424 39.2123 50.4603L38.5139 50.0413C37.9065 50.3241 37.2851 50.582 36.6509 50.8137L36.4536 51.6031C35.6606 54.7749 32.8107 57 29.5413 57H27.4587C24.1893 57 21.3394 54.7749 20.5464 51.6031L20.3491 50.8137C19.7149 50.582 19.0935 50.3241 18.4861 50.0413L17.7877 50.4603C14.9842 52.1424 11.3957 51.7006 9.08383 49.3888L7.6112 47.9162C5.29936 45.6043 4.85759 42.0158 6.53969 39.2123L6.95871 38.5139C6.67591 37.9065 6.418 37.2851 6.1863 36.6509L5.39693 36.4536C2.22511 35.6606 0 32.8107 0 29.5413V27.4587C0 24.1893 2.22512 21.3394 5.39693 20.5464L6.1863 20.3491C6.418 19.7149 6.67592 19.0935 6.95872 18.4861L6.53968 17.7877C4.85757 14.9842 5.29935 11.3956 7.61118 9.08376L9.08382 7.61112C11.3957 5.29929 14.9842 4.85751 17.7877 6.53962L18.4862 6.95868C19.0936 6.67589 19.715 6.41799 20.3491 6.1863L20.5464 5.39693ZM27.4587 4.75C26.3689 4.75 25.4189 5.49171 25.1546 6.54897L24.3137 9.91265L23.0208 10.3013C21.7934 10.6703 20.6181 11.1602 19.5085 11.7575L18.3191 12.3978L15.3439 10.6127C14.4094 10.052 13.2132 10.1993 12.4426 10.9699L10.9699 12.4425C10.1993 13.2131 10.0521 14.4093 10.6128 15.3438L12.3979 18.319L11.7576 19.5084C11.1602 20.618 10.6703 21.7934 10.3013 23.0208L9.91265 24.3137L6.54898 25.1546C5.49171 25.4189 4.75 26.3689 4.75 27.4587V29.5413C4.75 30.6311 5.49171 31.5811 6.54897 31.8454L9.91265 32.6863L10.3013 33.9792C10.6703 35.2066 11.1602 36.382 11.7576 37.4916L12.3979 38.681L10.6128 41.6561C10.0521 42.5906 10.1993 43.7868 10.97 44.5574L12.4426 46.0301C13.2132 46.8007 14.4094 46.9479 15.3439 46.3872L18.319 44.6022L19.5084 45.2424C20.6181 45.8398 21.7934 46.3297 23.0208 46.6987L24.3137 47.0873L25.1546 50.451C25.4189 51.5083 26.3689 52.25 27.4587 52.25H29.5413C30.6311 52.25 31.5811 51.5083 31.8454 50.451L32.6863 47.0873L33.9792 46.6987C35.2066 46.3297 36.382 45.8398 37.4916 45.2424L38.681 44.6021L41.6562 46.3872C42.5907 46.9479 43.7869 46.8007 44.5575 46.0301L46.0301 44.5574C46.8007 43.7868 46.948 42.5906 46.3873 41.6561L44.6022 38.681L45.2425 37.4916C45.8398 36.3819 46.3297 35.2066 46.6987 33.9792L47.0873 32.6863L50.451 31.8454C51.5083 31.5811 52.25 30.6311 52.25 29.5413V27.4587C52.25 26.3689 51.5083 25.4189 50.451 25.1546L47.0873 24.3137L46.6987 23.0208C46.3297 21.7934 45.8398 20.6181 45.2425 19.5085L44.6022 18.3191L46.3874 15.3438C46.9481 14.4093 46.8008 13.2131 46.0302 12.4425L44.5576 10.9699C43.787 10.1993 42.5908 10.052 41.6563 10.6127L38.681 12.3979L37.4916 11.7576C36.382 11.1602 35.2066 10.6703 33.9792 10.3013L32.6863 9.91265L31.8454 6.54898C31.5811 5.49171 30.6311 4.75 29.5413 4.75H27.4587Z" fill="#BCBCBC"/>
<path fill-rule="evenodd" clip-rule="evenodd" d="M28.5 23.75C25.8766 23.75 23.75 25.8766 23.75 28.5C23.75 31.1234 25.8766 33.25 28.5 33.25C31.1234 33.25 33.25 31.1234 33.25 28.5C33.25 25.8766 31.1234 23.75 28.5 23.75ZM19 28.5C19 23.2533 23.2533 19 28.5 19C33.7467 19 38 23.2533 38 28.5C38 33.7467 33.7467 38 28.5 38C23.2533 38 19 33.7467 19 28.5Z" fill="#BCBCBC"/>
</svg>
